:SAMPLES-PER-SECOND 30
:FULLY-SPECIFIED
:DEGREES
55
root  34.85046747 36.56628826 -14.48397899 9.719424248 -4.590267181 3.170202971
lowerback  -9.071799278 -0.1421989799 -0.3982825875
upperback  -3.602332115 0.3124549985 -3.320909977
thorax  1.363749981 0.3105449975 -3.176769972
lowerneck  -13.30049992 -6.046490192 -4.680900097
upperneck  13.36390018 -8.251000404 6.860280037
head  6.747910023 -3.579509735 2.151760101
lclavicle  0 -4.497500157e-015 -2.743230041e-014
lhumerus  -48.17210007 31.34180069 62.47510147
lradius  0.002362489002 -6.507048965e-006 29.42110062
lwrist  3.192251654e-007 -3.790274832e-007 -29.07419777
lhand  -3.521298449e-031 -36.77629852 -10.63440037
lfingers  90 7.125020027 -90
lthumb  94.74954987 -25.47533226 100.9330368
rclavicle  0 -4.497500157e-015 -2.743230041e-014
rhumerus  -34.27970123 -20.05590057 -57.73180008
rradius  -5.16745672e-007 2.214343908e-008 92.83059692
rwrist  0.0006954420824 -0.004670973402 -173.9109955
rhand  -3.001110987e-031 -0.628271997 -7.93460989
rfingers  -90 -7.125020027 -90
rthumb  -86.31026459 -7.861626148 -64.75788116
rfemur  -12.17602348 15.36958313 12.77899837
rtibia  -0.3449908793 -1.026749134 19.22941017
rfoot  0.7943025231 -21.95585442 -35.8139267
rtoes  4.076646805 19.60139847 -101.996727
lfemur  -7.470048904 -15.67849541 -20.43414497
ltibia  3.637114286 0.03663875535 12.63531494
lfoot  0.5149468184 -24.28764534 35.9948082
ltoes  -8.644385338 -18.10475349 -116.0688934
56
root  34.84949427 36.55810919 -14.47811577 9.733132362 -4.606070995 3.154072523
lowerback  -9.086209297 -0.1373509914 -0.4255762398
upperback  -3.598460913 0.3233880103 -3.337300062
thorax  1.374850035 0.3110395968 -3.177289963
lowerneck  -13.26490021 -6.080389977 -4.717820168
upperneck  13.34449959 -8.292579651 6.873960018
head  6.740270138 -3.601540089 2.15850997
lclavicle  0 -4.497500157e-015 -2.743230041e-014
lhumerus  -48.14360046 31.3423996 62.45970154
lradius  0.001407113392 -6.507048965e-006 29.41239738
lwrist  3.192251654e-007 -3.790274832e-007 -29.12199974
lhand  -3.521497843e-031 -36.79550171 -10.62930012
lfingers  90 7.125020027 -90
lthumb  94.75746918 -25.46967125 100.9531174
rclavicle  0 -4.497500157e-015 -2.743230041e-014
rhumerus  -33.20460129 -19.74259758 -57.54740143
rradius  -5.16745672e-007 2.214343908e-008 93.91320038
rwrist  0.0006954420824 -0.004670973402 -174.0110016
rhand  -2.993894394e-031 0.09148520231 -8.04294014
rfingers  -90 -7.125020027 -90
rthumb  -86.22021484 -7.807151794 -64.06398773
rfemur  -12.14633942 15.30692768 12.78247261
rtibia  -0.3261651695 -1.063238859 19.14818954
rfoot  0.8307135105 -22.00656891 -35.75901794
rtoes  4.073876858 19.60027885 -101.988472
lfemur  -7.450193405 -15.65956974 -20.42615509
ltibia  3.665067196 0.0681995973 12.61749554
lfoot  0.5619782805 -24.34925079 36.05842972
ltoes  -8.63785553 -18.10873222 -116.0478745
57
root  34.84834085 36.5613592 -14.47295992 9.743390083 -4.603590488 3.166902542
lowerback  -9.107164383 -0.1441260278 -0.4586684406
upperback  -3.596999884 0.310164988 -3.336060047
thorax  1.393339992 0.3089134097 -3.159339905
lowerneck  -13.24839973 -6.115109921 -4.731800079
upperneck  13.32579994 -8.341469765 6.904980183
head  6.736440182 -3.623570204 2.165899992
lclavicle  0 -4.497500157e-015 -2.743230041e-014
lhumerus  -48.10419846 31.31060028 62.47750092
lradius  0.0006047879579 -6.507048965e-006 29.4321003
lwrist  3.192251654e-007 -3.790274832e-007 -29.07099915
lhand  -3.508883719e-031 -36.79800034 -10.78110027
lfingers  90 7.125020027 -90
lthumb  94.79064941 -25.61859512 100.9696274
rclavicle  0 -4.497500157e-015 -2.743230041e-014
rhumerus  -32.00899887 -19.44519997 -57.34489822
rradius  -5.16745672e-007 2.214343908e-008 94.79550171
rwrist  0.0006954420824 -0.004670973402 -174.1649933
rhand  -2.993287135e-031 0.2505649924 -8.051950455
rfingers  -90 -7.125020027 -90
rthumb  -86.19358063 -7.808848858 -63.90981293
rfemur  -12.14376545 15.3350563 12.77494335
rtibia  -0.321939528 -1.04557085 19.15630531
rfoot  0.8127421141 -21.98085785 -35.81101608
rtoes  4.09564352 19.59925652 -102.0533752
lfemur  -7.407032967 -15.67886066 -20.46010399
ltibia  3.709776402 0.05431125686 12.52604103
lfoot  0.53306216 -24.26666069 36.03390121
ltoes  -8.630516052 -18.11119652 -116.0242691
58
root  34.84801946 36.55925661 -14.46751422 9.75125885 -4.617246628 3.171861887
lowerback  -9.125270844 -0.1559201628 -0.5061354637
upperback  -3.601789951 0.3043330014 -3.345649958
thorax  1.398000002 0.3088459969 -3.142810106
lowerneck  -13.19629955 -6.188720226 -4.765089989
upperneck  13.28829956 -8.451290131 7.020689964
head  6.729100227 -3.668550253 2.198029995
lclavicle  0 -4.497500157e-015 -2.743230041e-014
lhumerus  -48.12239838 31.29450035 62.44580078
lradius  2.407098236e-007 -6.507048965e-006 29.48749924
lwrist  3.192251654e-007 -3.790274832e-007 -29.04780006
lhand  -3.505360349e-031 -36.78689957 -10.82520008
lfingers  90 7.125020027 -90
lthumb  94.79470825 -25.6622982 100.961731
rclavicle  0 -4.497500157e-015 -2.743230041e-014
rhumerus  -30.79190063 -19.07640266 -57.06969833
rradius  -5.16745672e-007 2.214343908e-008 95.43049622
rwrist  0.0006954420824 -0.004670973402 -174.8450012
rhand  -3.002854864e-031 -0.004618879873 -7.909029961
rfingers  -90 -7.125020027 -90
rthumb  -86.17970276 -7.921839237 -64.14948273
rfemur  -12.16525459 15.35774517 12.76274109
rtibia  -0.3224440515 -1.047193646 19.17983246
rfoot  0.7899096012 -21.99671936 -35.8411026
rtoes  4.118753433 19.59823227 -102.1222992
lfemur  -7.379948139 -15.78780842 -20.48805809
ltibia  3.732556343 0.005042697303 12.4909153
lfoot  0.5142841339 -24.13873672 36.0700264
ltoes  -8.65010643 -18.10209274 -116.0873032
